HIERARCHY
ROOT root
{
	OFFSET	0	13.1	24.9
	CHANNELS 6  Xposition Yposition Zposition Xrotation Yrotation Zrotation
	JOINT spine_1
	{
		OFFSET	0	9.99999	0
		CHANNELS 3  Xrotation Yrotation Zrotation
		JOINT spine_2
		{
			OFFSET	0	112	-10
			CHANNELS 3  Xrotation Yrotation Zrotation
			JOINT spine_3
			{
				OFFSET	0	206.5	19.3
				CHANNELS 3  Xrotation Yrotation Zrotation
				JOINT spine_4
				{
					OFFSET	0	110.4	14.6
					CHANNELS 3  Xrotation Yrotation Zrotation
					JOINT neck_1
					{
						OFFSET	0	71.8	-50.3
						CHANNELS 3  Xrotation Yrotation Zrotation
						JOINT neck_2
						{
							OFFSET	0	86.2	-25.8
							CHANNELS 3  Xrotation Yrotation Zrotation
							JOINT head_ee
							{
								OFFSET	0	179.8	-8.7
								CHANNELS 3  Xrotation Yrotation Zrotation
								End Site
								{
									OFFSET	1	0	0
								}
							}
						}
					}
					JOINT left_clavicle
					{
						OFFSET	-43.2	22.4	-70.8
						CHANNELS 3  Xrotation Yrotation Zrotation
						JOINT left_shoulder
						{
							OFFSET	-93.9	-5.79999	48.7
							CHANNELS 3  Xrotation Yrotation Zrotation
							JOINT left_elbow
							{
								OFFSET	-291.4	-30.8	15.2
								CHANNELS 3  Xrotation Yrotation Zrotation
								JOINT left_lowarm_twist
								{
									OFFSET	-110.7	-3.89999	13.6
									CHANNELS 3  Xrotation Yrotation Zrotation
									JOINT left_hand
									{
										OFFSET	-110.7	-3.89999	13.6
										CHANNELS 3  Xrotation Yrotation Zrotation
										JOINT left_ee
										{
											OFFSET	-80.8	-5.10001	12.1
											CHANNELS 3  Xrotation Yrotation Zrotation
											End Site
											{
												OFFSET	1	0	0
											}
										}
									}
								}
							}
						}
					}
					JOINT right_clavicle
					{
						OFFSET	43.2	22.4	-70.8
						CHANNELS 3  Xrotation Yrotation Zrotation
						JOINT right_shoulder
						{
							OFFSET	93.9	-5.79999	48.7
							CHANNELS 3  Xrotation Yrotation Zrotation
							JOINT right_elbow
							{
								OFFSET	291.4	-30.8	15.2
								CHANNELS 3  Xrotation Yrotation Zrotation
								JOINT right_lowarm_twist
								{
									OFFSET	110.7	-3.89999	13.6
									CHANNELS 3  Xrotation Yrotation Zrotation
									JOINT right_hand
									{
										OFFSET	110.7	-3.89999	13.6
										CHANNELS 3  Xrotation Yrotation Zrotation
										JOINT right_ee
										{
											OFFSET	80.8	-5.10001	12.1
											CHANNELS 3  Xrotation Yrotation Zrotation
											End Site
											{
												OFFSET	1	0	0
											}
										}
									}
								}
							}
						}
					}
				}
			}
		}
	}
	JOINT left_hip
	{
		OFFSET	-82.8	-127.5	0.300001
		CHANNELS 3  Xrotation Yrotation Zrotation
		JOINT left_knee
		{
			OFFSET	-28.2	-396.7	2.2
			CHANNELS 3  Xrotation Yrotation Zrotation
			JOINT left_ankle
			{
				OFFSET	-11.7	-411.3	35.4
				CHANNELS 3  Xrotation Yrotation Zrotation
				JOINT left_toes
				{
					OFFSET	0	-60	-88.6
					CHANNELS 3  Xrotation Yrotation Zrotation
					JOINT left_foot_ee
					{
						OFFSET	-22.5	-16.5	-42.2
						CHANNELS 3  Xrotation Yrotation Zrotation
						End Site
						{
							OFFSET	1	0	0
						}
					}
				}
			}
		}
	}
	JOINT right_hip
	{
		OFFSET	82.8	-127.5	0.300001
		CHANNELS 3  Xrotation Yrotation Zrotation
		JOINT right_knee
		{
			OFFSET	28.2	-396.7	2.2
			CHANNELS 3  Xrotation Yrotation Zrotation
			JOINT right_ankle
			{
				OFFSET	11.7	-411.3	35.4
				CHANNELS 3  Xrotation Yrotation Zrotation
				JOINT right_toes
				{
					OFFSET	0	-60	-88.6
					CHANNELS 3  Xrotation Yrotation Zrotation
					JOINT right_foot_ee
					{
						OFFSET	22.5	-16.5	-42.2
						CHANNELS 3  Xrotation Yrotation Zrotation
						End Site
						{
							OFFSET	1	0	0
						}
					}
				}
			}
		}
	}
}
MOTION
Frames: 11
Frame Time: 0.02
1546.68 718.206 -819.868 178.088 -55.5573 -173.278 -4.06417 -0.0125809 -0.876831 -4.06374 0.0432374 -0.875855 -4.06384 0.285848 -0.829028 -4.06477 0.151336 -0.863765 -0.653836 12.9716 8.99364 -0.348906 15.9514 11.0173 -0.0 0.0 -0.0 8.80795 11.7106 16.5021 -22.8053 -21.0283 60.8194 0.270605 -7.63515 0.018057 -4.34874 -0.173375 0.528017 9.77913 -17.7189 76.9973 -0.0 0.0 -0.0 11.2688 11.8503 -22.6189 -10.0181 49.9567 -32.3278 1.65225 39.2964 -0.589942 -27.7412 1.7515 -3.0487 -7.52736 -13.5375 47.4735 0.0 0.0 0.0 36.2319 13.1119 -20.1323 0.310137 -0.0128951 -0.0458458 -11.793 10.8426 1.7633 -18.6585 0.0 0.0 -0.0 0.0 -0.0 9.45344 39.7981 -23.1851 -35.3904 0.199847 -5.34228 37.4386 -15.2945 4.70012 -5.04008 0.0 0.0 0.0 0.0 0.0 
1578.84 705.772 -820.059 178.498 -54.3713 -172.407 -4.01203 -0.0411167 -1.11547 -4.01134 0.0299427 -1.11583 -4.01098 0.339056 -1.0635 -4.01252 0.166852 -1.10369 -0.647626 13.1422 9.29654 -0.329355 16.0079 11.3562 -0.0 0.0 -0.0 8.99205 11.7028 16.8334 -22.507 -21.1673 60.7832 0.283126 -7.98398 0.0197583 -4.63715 -0.186286 0.562556 9.78555 -17.7429 77.0869 -0.0 0.0 -0.0 11.3981 11.8088 -22.9097 -10.8946 49.4049 -32.3098 1.6273 38.8698 -0.574209 -27.7829 1.75519 -3.05256 -7.51361 -13.1615 47.7404 0.0 0.0 0.0 35.4576 13.3584 -19.9393 -0.913373 0.0365298 0.135407 -11.6286 10.6632 1.73821 -18.5931 0.0 0.0 -0.0 0.0 -0.0 8.49083 39.7236 -23.4348 -36.0942 0.237158 -5.44375 37.3922 -15.1277 4.69334 -5.17261 0.0 0.0 0.0 0.0 0.0 
1613.18 708.498 -821.131 178.389 -53.3764 -172.615 -3.64197 -0.0584865 -1.25221 -3.6411 0.0213074 -1.2534 -3.64044 0.361269 -1.2004 -3.64241 0.16717 -1.24239 0.837047 13.7704 8.93026 1.18069 17.0202 10.9447 -0.0 0.0 -0.0 9.68134 11.5892 18.0929 -21.5539 -21.5509 60.7721 0.282128 -7.9562 0.01962 -4.79881 -0.193599 0.581889 9.70522 -16.9959 77.1382 -0.0 0.0 -0.0 11.2728 12.0515 -22.6246 -11.9018 48.7207 -33.8429 1.45007 35.6884 -0.466823 -27.6029 1.73925 -3.03587 -7.55604 -12.9441 48.3949 0.0 0.0 0.0 34.919 13.5049 -19.8681 -2.97641 0.111055 0.443232 -13.4725 10.5579 2.0177 -18.4304 0.0 0.0 -0.0 0.0 -0.0 6.18201 39.9319 -22.6122 -36.434 0.255625 -5.4926 36.7031 -15.6491 4.63464 -5.26113 0.0 0.0 0.0 0.0 0.0 
1662.65 712.653 -814.094 174.438 -53.3444 -176.027 -3.87052 0.00837709 -1.33138 -3.86953 0.0930714 -1.32815 -3.87047 0.455701 -1.251 -3.87257 0.252428 -1.30726 0.988521 13.2453 7.57873 1.29414 17.1789 9.42811 -0.0 0.0 -0.0 9.99027 11.6081 18.6551 -22.7432 -22.4335 59.9728 0.284846 -8.03185 0.0199981 -5.60366 -0.23082 0.67783 9.71718 -17.1279 77.0781 -0.0 0.0 -0.0 10.4574 10.3607 -20.8338 -13.3797 47.1816 -35.6331 1.25656 31.8994 -0.359132 -27.4126 1.72246 -3.01817 -7.56256 -11.8922 49.5965 0.0 0.0 0.0 32.3057 14.0113 -19.8003 -10.8717 0.292744 1.64027 -11.4878 10.1887 1.71645 -17.0629 0.0 0.0 -0.0 0.0 -0.0 5.74829 39.9459 -21.4009 -38.4098 0.368713 -5.77438 34.5521 -16.9595 4.44074 -6.01417 0.0 0.0 0.0 0.0 0.0 
1701.93 718.717 -806.377 172.757 -54.118 -177.174 -3.88192 -0.0917448 -1.45488 -3.88074 0.00100872 -1.45777 -3.87914 0.403154 -1.40092 -3.88183 0.176869 -1.447 0.552393 12.7882 6.77429 0.82783 17.1465 8.5474 -0.0 0.0 -0.0 10.1799 12.077 18.944 -22.6031 -23.3374 58.7532 0.332223 -9.34579 0.0271556 -7.40829 -0.319162 0.891013 9.59045 -16.1662 76.5162 -0.0 0.0 -0.0 10.122 9.49519 -20.1059 -14.0184 46.3419 -38.2728 1.10229 28.6355 -0.281341 -27.1157 1.69638 -2.99046 -7.75345 -12.5174 50.9005 0.0 0.0 0.0 29.6088 12.166 -19.1942 -17.4803 0.317123 2.65338 -6.10499 9.94446 0.904954 -17.7743 0.0 0.0 -0.0 0.0 -0.0 4.35399 37.7493 -20.4248 -40.7134 0.512778 -6.09785 32.8086 -15.3477 4.23881 -5.96302 0.0 0.0 0.0 0.0 0.0 
1729.16 723.063 -807.94 168.002 -56.4437 170.832 -5.42444 0.335659 1.51596 -5.4232 0.238526 1.53424 -5.41412 -0.23515 1.53476 -5.4174 0.0101582 1.55264 11.0103 10.516 3.23682 11.287 14.0927 3.95015 -0.0 0.0 -0.0 10.5872 4.09107 20.5802 -20.8735 -18.1679 52.6601 0.569103 -15.7442 0.0786877 -24.2069 -1.44863 2.71193 3.71457 18.6265 31.7527 -0.0 0.0 -0.0 9.99655 16.0075 -19.6388 2.80696 27.5252 -54.326 1.056 27.6139 -0.259521 -40.2548 2.9783 -4.0789 -1.89693 15.1521 19.5166 0.0 0.0 0.0 24.2037 -3.38137 -5.54166 -24.0803 0.224931 3.66135 -4.5045 14.7253 0.669445 -32.1889 0.0 0.0 -0.0 0.0 -0.0 -5.61103 28.3205 -2.39444 -45.1991 0.830213 -6.71024 33.86 -14.8118 4.34075 39.3291 -0.0 -0.0 0.0 0.0 0.0 
1759.88 725.765 -807.367 165.297 -57.04 168.757 -5.51701 0.209934 1.27997 -5.51611 0.128067 1.29074 -5.51139 -0.269216 1.26883 -5.51363 -0.0654671 1.29542 8.63878 11.1218 3.19647 8.95608 15.5946 3.96576 -0.0 0.0 -0.0 10.4762 1.6723 20.5388 -18.2694 -18.7488 53.9238 0.51653 -14.3527 0.0650368 -24.7599 -1.49463 2.76584 3.37478 21.5067 29.9733 -0.0 0.0 -0.0 10.584 14.3112 -21.0218 0.48831 26.4529 -52.8195 0.940487 24.9799 -0.208333 -40.0087 2.95209 -4.06128 -1.72866 13.7898 17.7536 0.0 0.0 0.0 21.9866 -6.04259 -3.61154 -25.2024 0.197731 3.8314 -4.36682 19.077 0.656083 -31.0592 0.0 0.0 -0.0 0.0 -0.0 -2.62478 25.2612 -1.70284 -50.5356 1.26914 -7.40431 34.2815 -17.3847 4.41977 37.7287 -0.0 -0.0 0.0 0.0 0.0 
1792.01 729.544 -806.031 165.248 -56.4624 168.152 -5.37426 0.219513 1.15599 -5.37353 0.145514 1.16761 -5.36906 -0.212383 1.15732 -5.37092 -0.026953 1.17634 7.16287 11.3769 3.51005 7.47619 16.0371 4.40808 -0.0 0.0 -0.0 10.1534 7.03948 19.4553 -14.3845 -20.5993 53.3281 0.722882 -19.7022 0.125529 -27.3332 -1.71548 3.01078 2.59118 23.8649 25.2381 -0.0 0.0 -0.0 9.42305 13.2573 -18.4875 0.0697777 26.255 -55.148 0.874724 23.4275 -0.181369 -39.3173 2.87886 -4.0112 -1.76103 13.1625 17.7152 0.0 0.0 0.0 19.6069 -5.04825 -2.30483 -25.1629 0.198747 3.82542 -3.4219 14.3957 0.507197 -30.987 0.0 0.0 -0.0 0.0 -0.0 0.419045 24.4232 0.301111 -54.9531 1.68036 -7.94644 29.1395 -15.949 3.85032 37.6057 -0.0 -0.0 0.0 0.0 0.0 
1811.43 735.502 -799.181 165.564 -56.7619 167.462 -5.18311 0.360487 1.48461 -5.18192 0.265298 1.50454 -5.1724 -0.194263 1.51535 -5.1756 0.0474666 1.52701 6.79849 11.6394 2.95258 7.15242 17.0556 3.77401 -0.0 0.0 -0.0 9.31625 5.3955 17.9633 -10.8459 -22.1462 52.7391 0.801297 -21.6499 0.15322 -27.2924 -1.71189 3.00697 2.96087 25.3418 27.9604 -0.0 0.0 -0.0 9.04345 13.4123 -17.6495 -0.639876 25.8079 -57.7046 0.818415 22.0684 -0.159594 -37.5349 2.69289 -3.87805 -1.58444 12.1138 16.0264 0.0 0.0 0.0 17.7463 -5.71995 -0.983919 -23.2123 0.243679 3.52948 -6.25124 13.0829 0.92944 -32.0002 0.0 0.0 -0.0 0.0 -0.0 2.58645 22.8313 1.38634 -57.225 1.90791 -8.21268 23.8015 -16.5834 3.23776 37.589 -0.0 -0.0 0.0 0.0 0.0 
1842.09 742.327 -793.334 166.44 -56.7024 169.095 -4.78137 0.317152 0.948132 -4.78091 0.256181 0.966389 -4.77552 -0.0359478 0.999119 -4.7769 0.122288 0.992259 6.15766 10.9531 2.81605 6.46175 16.1334 3.64191 -0.0 0.0 -0.0 10.0873 10.7742 18.9326 -7.42029 -19.7593 51.3999 1.10591 -28.7145 0.283077 -28.5509 -1.82378 3.12319 2.34801 24.7367 23.8859 -0.0 0.0 -0.0 8.48927 13.6978 -16.428 -2.46667 22.9928 -59.0251 0.702211 19.1805 -0.118649 -35.5679 2.49261 -3.72451 -1.26505 14.9213 14.9912 0.0 0.0 0.0 15.6966 -10.5416 0.275486 -22.2289 0.262504 3.37975 -6.31396 17.7802 0.948117 -30.3044 0.0 0.0 -0.0 0.0 -0.0 7.73642 22.08 -0.570803 -60.5945 2.26452 -8.59062 25.0449 -14.4165 3.36665 36.5196 -0.0 -0.0 0.0 0.0 0.0 
1866.78 746.428 -790.842 165.393 -55.4172 168.109 -4.95975 0.344814 0.759668 -4.95948 0.295777 0.780068 -4.95469 0.0535282 0.832538 -4.95561 0.184336 0.813638 6.64459 11.0957 2.80909 6.96372 16.2899 3.60632 -0.0 0.0 -0.0 9.99117 6.84564 19.1587 -5.78709 -22.1378 50.362 0.9237 -24.5872 0.201295 -30.3735 -1.99031 3.28713 2.03338 24.9094 21.9588 -0.0 0.0 -0.0 8.24866 13.3379 -15.9214 -1.19972 20.7713 -60.2896 0.545963 15.134 -0.0725276 -35.8903 2.52508 -3.75015 -1.18279 11.8946 13.1385 0.0 0.0 0.0 14.6145 -1.75969 -1.18617 -24.8554 0.206498 3.77888 -5.70014 9.36112 0.844185 -30.5746 0.0 0.0 -0.0 0.0 -0.0 12.7475 17.4593 0.556311 -65.5885 2.83268 -9.11108 24.061 -7.79134 3.22168 34.8853 -0.0 -0.0 0.0 0.0 0.0 
